PathFileType	4	(X/Y/Z)	./resultDataOpenSim/trcMotMarkerGrf/sub09/qtm-02-08.trc
DataRate	CameraRate	NumFrames	NumMarkers	Units	OrigDataRate	OrigDataStartFrame	OrigNumFrames
250.000000	250.000000	14	24	m	250.000000	62	489
Frame#	Time	L.Toe.Tip			R.Toe.Tip			L.Ankle.Lat			R.Ankle.Lat			L.Ankle.Med			R.Ankle.Med			L.Heel			R.Heel			L.Knee.Lat			R.Knee.Lat			L.Knee.Med			R.Knee.Med			L.Thigh.Upper			R.Thigh.Upper			L.ASIS			R.ASIS			V.Sacral			L.Acromium			R.Acromium			C7			L.Elbow			R.Elbow			L.Wrist.Lat			R.Wrist.Lat
		X1	Y1	Z1	X2	Y2	Z2	X3	Y3	Z3	X4	Y4	Z4	X5	Y5	Z5	X6	Y6	Z6	X7	Y7	Z7	X8	Y8	Z8	X9	Y9	Z9	X10	Y10	Z10	X11	Y11	Z11	X12	Y12	Z12	X13	Y13	Z13	X14	Y14	Z14	X15	Y15	Z15	X16	Y16	Z16	X17	Y17	Z17	X18	Y18	Z18	X19	Y19	Z19	X20	Y20	Z20	X21	Y21	Z21	X22	Y22	Z22	X23	Y23	Z23	X24	Y24	Z24

62	0.244	-1.3683775	0.092269044	-0.053792912	-0.63602032	0.039720628	0.091574666	-1.3875918	0.24869334	-0.094529628	-0.78357827	0.053176324	0.11749312	-1.3630336	0.23099479	-0.0016972301	-0.77263582	0.091338072	0.027026769	-1.4478561	0.29454755	-0.045474893	-0.85071244	0.030782325	0.066560684	-1.0130018	0.42447447	-0.11935025	-0.74129252	0.50609076	0.17945728	-1.0006408	0.4094597	0.0053391596	-0.75668398	0.49399217	0.052827063	-0.96571074	0.82982571	-0.13250787	-0.94409167	0.85800717	0.23993129	-0.87184659	0.91390566	-0.077677233	-0.86914977	0.94148918	0.16267484	-1.0362033	0.98674965	0.041959447	-0.84072673	1.3738484	-0.12239458	-0.89016347	1.3864693	0.20396085	-0.93108922	1.4359766	0.03260142	-0.97318784	1.0201255	-0.19482762	-1.049804	1.0546782	0.26408255	-0.73322398	0.88568809	-0.18087851	-0.93605721	0.80765751	0.2964898
63	0.248	-1.3549802	0.09460722	-0.055476831	-0.63599898	0.039677371	0.09148512	-1.3749799	0.25118273	-0.093954673	-0.7835964	0.053272769	0.11748444	-1.3480192	0.23314911	-0.0022457706	-0.77243262	0.091293319	0.026914798	-1.435442	0.29654886	-0.044147622	-0.85076208	0.030808528	0.066509292	-0.99995126	0.42498772	-0.11891399	-0.73778554	0.50579139	0.17938364	-0.98793063	0.40970654	0.0060354831	-0.75354203	0.49385293	0.052988927	-0.95912868	0.83077597	-0.13220014	-0.93792613	0.85962849	0.24028993	-0.8658912	0.91520089	-0.077413859	-0.8629085	0.94288143	0.16285548	-1.0301864	0.9880942	0.042289727	-0.83507314	1.3750348	-0.1223709	-0.88368145	1.3877071	0.20415512	-0.92518783	1.4372327	0.032570126	-0.96755963	1.0213907	-0.1940335	-1.0425664	1.055341	0.26544171	-0.72921941	0.88413214	-0.18086063	-0.92652866	0.80910578	0.29588225
64	0.252	-1.3411909	0.096750793	-0.057067715	-0.63599872	0.039646029	0.091395724	-1.3622303	0.25338001	-0.093336711	-0.78363782	0.05337294	0.1174729	-1.3335026	0.23487927	-0.0024020855	-0.77226987	0.091258649	0.026815704	-1.4229322	0.29822277	-0.042938833	-0.85081929	0.030835609	0.066445319	-0.98692819	0.42565875	-0.11842791	-0.73452444	0.50542753	0.17936628	-0.97432081	0.41005055	0.0066966777	-0.75058482	0.49363498	0.053283112	-0.95255483	0.83182968	-0.13191273	-0.93185747	0.86131651	0.24063437	-0.85993157	0.91659357	-0.077144548	-0.85669878	0.94434548	0.16303503	-1.0241781	0.98952724	0.042576746	-0.8294035	1.3763025	-0.12233706	-0.87723752	1.389004	0.20434861	-0.9192629	1.4385746	0.032687355	-0.96201489	1.0226449	-0.19335065	-1.0352066	1.0560802	0.26713617	-0.72535014	0.88262362	-0.18086389	-0.91685307	0.81070806	0.29530981
65	0.256	-1.327012	0.09870924	-0.058556006	-0.63601932	0.039624072	0.091310702	-1.3493385	0.25526994	-0.09269868	-0.78370058	0.053461136	0.11747308	-1.3198211	0.23605127	-0.0020159944	-0.77214109	0.091234735	0.026733469	-1.410302	0.29956323	-0.041856039	-0.85088015	0.030863472	0.066368951	-0.97394528	0.42648809	-0.11790939	-0.73147797	0.50504208	0.1794124	-0.96053029	0.41056014	0.0073211706	-0.74773371	0.49336051	0.053572298	-0.94598096	0.83298441	-0.13163737	-0.92585359	0.86304188	0.24096287	-0.85399941	0.91806752	-0.076868342	-0.85051621	0.94584671	0.16322829	-1.0181872	0.9910274	0.042832431	-0.82366738	1.377655	-0.12227679	-0.87083488	1.3903644	0.20454096	-0.9133142	1.4399988	0.032910408	-0.95644483	1.0239503	-0.19249776	-1.0278716	1.0568828	0.26885124	-0.72161841	0.88117216	-0.18087561	-0.90709755	0.81245666	0.29475481
66	0.26	-1.3124418	0.10047874	-0.059936538	-0.63605877	0.039608816	0.091243091	-1.3362173	0.25685447	-0.092114729	-0.783776	0.053511128	0.1175145	-1.3068808	0.2367479	-0.0011969102	-0.77204071	0.09121431	0.02666776	-1.3974651	0.30054384	-0.040954296	-0.85094026	0.030890906	0.066283398	-0.9610072	0.42747732	-0.11736677	-0.72860658	0.50468623	0.17951169	-0.9470901	0.4112633	0.0079423331	-0.74488759	0.4930542	0.053731312	-0.93939915	0.83423237	-0.13137282	-0.91987077	0.86476852	0.24127618	-0.84813248	0.91960041	-0.076593812	-0.84431763	0.9473644	0.16344685	-1.0122227	0.99254648	0.043091309	-0.81794721	1.3790888	-0.1221992	-0.86447528	1.391791	0.20473523	-0.90735732	1.4414924	0.033185533	-0.95081405	1.0253887	-0.19125917	-1.0207194	1.0577377	0.27024885	-0.71802108	0.87978414	-0.18088554	-0.89733271	0.81434555	0.29419163
67	0.264	-1.2974738	0.10206288	-0.061195416	-0.63611449	0.039598639	0.09120041	-1.3227999	0.2581525	-0.091643875	-0.78386113	0.053514547	0.11760514	-1.2945015	0.23717145	-0.00014403256	-0.7719651	0.091192829	0.026618329	-1.3843964	0.30114952	-0.040252834	-0.85099615	0.030916671	0.066192713	-0.94811235	0.42863459	-0.11680583	-0.72590143	0.50439329	0.17965028	-0.93398359	0.41214402	0.008558068	-0.74203012	0.49274021	0.053760222	-0.93280622	0.8355713	-0.13110802	-0.91395336	0.86645246	0.2415613	-0.84233593	0.9211871	-0.076321429	-0.83804567	0.94888847	0.16370068	-1.0062862	0.99406061	0.043372915	-0.81237191	1.3805907	-0.12212443	-0.85815279	1.3932822	0.20493386	-0.90140867	1.4430372	0.033484805	-0.94517838	1.0269481	-0.18977002	-1.0137687	1.0586437	0.27127622	-0.71455764	0.87845952	-0.18088835	-0.88759358	0.8163739	0.29361062
68	0.268	-1.2821081	0.10347656	-0.062308804	-0.63618304	0.039594088	0.091179663	-1.3091553	0.25918521	-0.091252261	-0.7839598	0.053499337	0.11770807	-1.2821865	0.23752931	0.00085508746	-0.77191216	0.091173523	0.026586391	-1.3712526	0.3013967	-0.039618926	-0.85104749	0.030941923	0.066101327	-0.93526867	0.42996784	-0.11623504	-0.72336705	0.50415286	0.17981644	-0.92099379	0.41318225	0.0091506089	-0.73924022	0.49244084	0.053753704	-0.92621458	0.83700562	-0.13081605	-0.9083396	0.86803353	0.24176862	-0.8365765	0.92284177	-0.076039524	-0.83166279	0.95041042	0.16399815	-1.0003676	0.99559484	0.043661693	-0.80696512	1.3821491	-0.12206101	-0.8518593	1.3948332	0.2051368	-0.89547883	1.4446083	0.033796368	-0.93962285	1.0285608	-0.18834413	-1.0069337	1.0596052	0.27209931	-0.71123389	0.87719968	-0.18088391	-0.87789946	0.81852685	0.29302084
69	0.272	-1.2663625	0.10473166	-0.063255998	-0.63625966	0.039596283	0.09117278	-1.2954204	0.25996205	-0.090857177	-0.78407798	0.053505296	0.11777998	-1.2690465	0.2379452	0.0014576993	-0.77188023	0.091163864	0.026571536	-1.3582103	0.30130382	-0.038916893	-0.85109577	0.030971834	0.066014902	-0.92248337	0.43147191	-0.11566528	-0.72096664	0.50391205	0.17998383	-0.90797901	0.41437976	0.0097402593	-0.73662103	0.49217738	0.053800708	-0.91965627	0.83853288	-0.13049114	-0.90345449	0.86943367	0.24180476	-0.83080576	0.92458038	-0.075737025	-0.82517857	0.95192081	0.16434003	-0.99445399	0.99718271	0.043940828	-0.80164908	1.383763	-0.12200708	-0.84559723	1.3964386	0.20534387	-0.88957394	1.4461907	0.03411015	-0.93418252	1.0302046	-0.1871183	-1.0001345	1.0606224	0.27287441	-0.70805397	0.8760113	-0.18087465	-0.86826675	0.82078042	0.29243222
70	0.276	-1.2502746	0.10582517	-0.064027861	-0.63634016	0.039603264	0.091173456	-1.2816509	0.26047302	-0.090426397	-0.78422037	0.053548173	0.11781612	-1.2544526	0.23841498	0.0014976208	-0.77186793	0.091168347	0.026567795	-1.3452515	0.30086834	-0.038203687	-0.85114083	0.031014143	0.065938042	-0.90973612	0.43312429	-0.11510267	-0.71857879	0.50361447	0.18008891	-0.89495985	0.41574634	0.010365821	-0.73421375	0.49196549	0.053917057	-0.91317029	0.84013329	-0.13018633	-0.89952205	0.87062034	0.24161436	-0.82497454	0.92640536	-0.075407196	-0.81868657	0.95340735	0.1647073	-0.98854512	0.99881852	0.044226394	-0.79634978	1.385436	-0.1219599	-0.83937629	1.3980894	0.20555397	-0.8836959	1.4477986	0.034412657	-0.9288424	1.0319034	-0.18602806	-0.99333802	1.0616908	0.2736645	-0.70501111	0.87489986	-0.18086082	-0.85870143	0.82312398	0.29184039
71	0.28	-1.2339109	0.10673542	-0.064616293	-0.63642231	0.039609949	0.091179674	-1.2678123	0.26069229	-0.08997947	-0.78438633	0.053617203	0.11783959	-1.2388384	0.23881208	0.0012101539	-0.7718772	0.091185788	0.026563008	-1.3322449	0.30008603	-0.037623374	-0.85118048	0.031073271	0.065870467	-0.89698087	0.43489924	-0.11454319	-0.71600563	0.50323942	0.18004283	-0.8820843	0.41727676	0.011028188	-0.7319775	0.49180256	0.05406563	-0.90677275	0.84178493	-0.12996436	-0.89601501	0.87169496	0.24131695	-0.81906084	0.92830392	-0.075045928	-0.8124076	0.95484832	0.16505341	-0.98265299	1.0004777	0.04453609	-0.79103919	1.3871629	-0.12191412	-0.83319644	1.3997706	0.20576276	-0.87783936	1.4494683	0.034675251	-0.9235756	1.0336779	-0.18497183	-0.98654297	1.0628074	0.27447572	-0.70208564	0.87386513	-0.18083582	-0.84919633	0.82555928	0.29123374
72	0.284	-1.2173808	0.10742253	-0.064993956	-0.63650406	0.03961246	0.091193092	-1.2538604	0.26060143	-0.089535085	-0.7845621	0.0536957	0.11786494	-1.223276	0.23897633	0.0010220177	-0.77191506	0.091211761	0.026543055	-1.3191084	0.2989626	-0.037226339	-0.85121186	0.031145037	0.065808229	-0.88417217	0.43678687	-0.11397591	-0.71313896	0.50281241	0.17981924	-0.86950882	0.41896136	0.011693042	-0.72984422	0.49166799	0.054215125	-0.90043379	0.8434861	-0.12980918	-0.89183957	0.87284847	0.24117892	-0.81311735	0.93025748	-0.074660297	-0.80665381	0.95621348	0.16532008	-0.97678301	1.0021643	0.044852604	-0.78571681	1.3889256	-0.12185938	-0.82705166	1.4014748	0.20596735	-0.87199815	1.4512272	0.034846061	-0.91836507	1.0355303	-0.18388788	-0.97975963	1.0639721	0.2753008	-0.69925644	0.87290459	-0.18079125	-0.83973524	0.82808793	0.29061087
73	0.288	-1.2008119	0.10784323	-0.065118502	-0.636583	0.039610528	0.091218227	-1.2397812	0.26021108	-0.089101774	-0.78470783	0.053777233	0.11787326	-1.2083279	0.23883104	0.0011370421	-0.7719825	0.091241871	0.026503935	-1.3058349	0.29750497	-0.03696184	-0.85123206	0.031220811	0.065751145	-0.87134007	0.43879649	-0.11338887	-0.71017032	0.50239259	0.17953277	-0.85728485	0.42081457	0.012353473	-0.72777134	0.49154049	0.05435232	-0.89408009	0.84524881	-0.12963782	-0.88629525	0.8741947	0.24138464	-0.80723293	0.93225147	-0.074271001	-0.8015637	0.95749322	0.16548791	-0.9709221	1.0038909	0.045163262	-0.78039188	1.3907059	-0.1217876	-0.82094308	1.4032076	0.20617172	-0.8661744	1.4530596	0.034897911	-0.91320794	1.0374489	-0.18275643	-0.97299924	1.0651854	0.2761351	-0.69652208	0.87201653	-0.18073073	-0.83029021	0.83071011	0.28998416
74	0.292	-1.1842505	0.10798692	-0.064991849	-0.6366584	0.03960607	0.091259396	-1.2255746	0.25954863	-0.088685916	-0.78475899	0.053867385	0.11781085	-1.1938257	0.23839894	0.0014863481	-0.77206133	0.091275154	0.026463372	-1.2924639	0.29572304	-0.036738913	-0.85124008	0.031296663	0.065706291	-0.85864634	0.44094057	-0.11277307	-0.70743406	0.50203079	0.17933876	-0.84533381	0.42289226	0.013067313	-0.72575064	0.49140982	0.054466751	-0.88759444	0.84708347	-0.12938659	-0.87960383	0.87569975	0.24188534	-0.80142339	0.93427839	-0.073896535	-0.79681445	0.95873097	0.1656121	-0.96504835	1.0056375	0.045492727	-0.77507308	1.3924972	-0.1217005	-0.81486476	1.4049685	0.20637879	-0.86037482	1.4549012	0.034899531	-0.90810481	1.0394154	-0.18158413	-0.96626894	1.0664445	0.27697625	-0.69390189	0.87120047	-0.18067012	-0.82081948	0.83342699	0.28936606
75	0.296	-1.1675734	0.1079007	-0.064723726	-0.63673215	0.039601495	0.091315526	-1.2112387	0.25863257	-0.08828957	-0.78467635	0.053970309	0.11764269	-1.1794038	0.23773419	0.0019260905	-0.77213052	0.09131485	0.026446845	-1.2790332	0.2936327	-0.036478403	-0.85123981	0.031374851	0.065679762	-0.84622037	0.4432152	-0.11211972	-0.7050563	0.50172994	0.17927916	-0.83362353	0.42528038	0.013919592	-0.72374568	0.49128324	0.054509412	-0.88088182	0.84900053	-0.12905243	-0.87254535	0.87726176	0.24247196	-0.79563161	0.93633368	-0.073542786	-0.79186226	0.95999461	0.16577447	-0.95914868	1.0073812	0.045850537	-0.76976323	1.3943019	-0.12160778	-0.80879393	1.4067431	0.20658228	-0.85460642	1.4566931	0.034975289	-0.90304742	1.0414163	-0.18037932	-0.95956738	1.0677379	0.27781939	-0.69141174	0.87046077	-0.18062285	-0.8112831	0.83624046	0.28875894
